<svg version="1.1" viewBox="0 0 30 30" height="30px" width="30px" xmlns:xlink="http://www.w3.org/1999/xlink" xmlns="http://www.w3.org/2000/svg">
<g id="surface1">
<path d="M 29.625 3.53125 C 28.515625 4.140625 27.339844 4.542969 26.132812 4.71875 C 27.398438 3.777344 28.351562 2.300781 28.808594 0.550781 C 27.617188 1.429688 26.308594 2.050781 24.949219 2.382812 C 22.648438 -0.660156 18.808594 -0.804688 16.359375 2.039062 C 15.132812 3.46875 14.441406 5.453125 14.441406 7.535156 C 14.441406 8.113281 14.492188 8.691406 14.601562 9.25 C 9.714844 8.949219 5.167969 6.074219 2.074219 1.367188 C 1.535156 2.515625 1.25 3.828125 1.25 5.164062 C 1.25 7.679688 2.265625 10.027344 3.949219 11.421875 C 2.984375 11.382812 2.042969 11.0625 1.199219 10.480469 L 1.199219 10.585938 C 1.191406 14.183594 3.234375 17.289062 6.074219 18.003906 C 5.550781 18.179688 5.015625 18.269531 4.476562 18.269531 C 4.089844 18.269531 3.707031 18.21875 3.332031 18.136719 C 4.132812 21.210938 6.410156 23.308594 9.007812 23.371094 C 6.457031 25.855469 3.214844 26.980469 0 26.507812 C 2.773438 28.71875 6.015625 29.898438 9.316406 29.898438 C 20.484375 29.898438 26.609375 18.40625 26.609375 8.433594 C 26.609375 8.101562 26.609375 7.78125 26.589844 7.449219 C 27.785156 6.386719 28.808594 5.070312 29.625 3.550781 Z M 29.625 3.53125" style="stroke:none;fill-rule:evenodd;fill:rgb(67.058824%,52.941176%,26.666667%);fill-opacity:1;"></path>
</g>
</svg>
