<svg width="178" height="46" viewBox="0 0 178 46" fill="none" xmlns="http://www.w3.org/2000/svg">
<g clip-path="url(#clip0_2741_4478)">
<path d="M63.0591 45.1743C63.1941 45.1743 63.2841 45.1438 63.3351 45.0797C63.3831 45.0156 63.4071 44.9301 63.4071 44.8232V38.1438C63.4071 38.037 63.3831 37.9515 63.3351 37.8874C63.2871 37.8233 63.1941 37.7928 63.0591 37.7928V37.6157H64.9671V37.7928C64.8321 37.7928 64.7391 37.8233 64.6911 37.8874C64.6431 37.9515 64.6191 38.037 64.6191 38.1438V44.8232C64.6191 44.9301 64.6431 45.0156 64.6911 45.0797C64.7391 45.1438 64.8321 45.1743 64.9671 45.1743V45.3514H63.0591V45.1743Z" fill="#004A2B"/>
<path d="M76.229 43.4099V38.144C76.229 38.0371 76.205 37.9516 76.157 37.8875C76.109 37.8234 76.016 37.7929 75.881 37.7929V37.6158H77.615V37.7929C77.48 37.7929 77.39 37.8234 77.339 37.8875C77.291 37.9516 77.267 38.0371 77.267 38.144V44.8234C77.267 44.9302 77.291 45.0157 77.339 45.0798C77.387 45.1439 77.48 45.1744 77.615 45.1744V45.3515H75.764V45.1744C75.956 45.1744 76.052 45.1347 76.052 45.0554C76.052 44.9882 76.034 44.9302 75.995 44.8875C75.956 44.8447 75.929 44.8081 75.908 44.7776L70.76 38.8186V44.8203C70.76 44.9272 70.784 45.0126 70.832 45.0767C70.88 45.1409 70.973 45.1714 71.108 45.1714V45.3484H69.374V45.1714C69.509 45.1714 69.599 45.1409 69.65 45.0767C69.698 45.0126 69.722 44.9272 69.722 44.8203V38.1409C69.722 38.0341 69.698 37.9486 69.65 37.8845C69.602 37.8204 69.509 37.7899 69.374 37.7899V37.6128H71.816V37.7899C71.711 37.7899 71.636 37.8021 71.6 37.8265C71.561 37.8509 71.543 37.8936 71.543 37.9516C71.543 37.9822 71.555 38.0127 71.579 38.0463C71.603 38.0799 71.63 38.1134 71.66 38.1409L76.199 43.4069H76.229V43.4099Z" fill="#004A2B"/>
<path d="M82.1268 38.1438C82.1268 38.037 82.1028 37.9515 82.0548 37.8874C82.0068 37.8233 81.9138 37.7928 81.7788 37.7928V37.6157H86.2608C86.8578 37.6157 87.3948 37.7104 87.8718 37.9027C88.3488 38.095 88.7538 38.3606 89.0868 38.7056C89.4198 39.0475 89.6778 39.4596 89.8608 39.9328C90.0438 40.409 90.1368 40.9249 90.1368 41.4835C90.1368 42.0422 90.0588 42.5612 89.9058 43.0343C89.7528 43.5106 89.5218 43.9196 89.2188 44.2615C88.9158 44.6034 88.5378 44.8721 88.0908 45.0644C87.6438 45.2567 87.1248 45.3514 86.5368 45.3514H81.7818V45.1743C81.9168 45.1743 82.0068 45.1438 82.0578 45.0797C82.1058 45.0156 82.1298 44.9301 82.1298 44.8232V38.1438H82.1268ZM86.4048 44.3806C87.2538 44.3806 87.8898 44.1364 88.3128 43.6449C88.7358 43.1534 88.9488 42.4329 88.9488 41.4835C88.9488 40.5341 88.7058 39.8106 88.2198 39.3222C87.7338 38.8307 87.0408 38.5865 86.1438 38.5865H83.3388V44.3836H86.4048V44.3806Z" fill="#004A2B"/>
<path d="M93.8931 45.1743C94.0281 45.1743 94.1181 45.1438 94.1691 45.0797C94.2171 45.0156 94.2411 44.9301 94.2411 44.8232V38.1438C94.2411 38.037 94.2171 37.9515 94.1691 37.8874C94.1211 37.8233 94.0281 37.7928 93.8931 37.7928V37.6157H95.8011V37.7928C95.6661 37.7928 95.5731 37.8233 95.5251 37.8874C95.4771 37.9515 95.4531 38.037 95.4531 38.1438V44.8232C95.4531 44.9301 95.4771 45.0156 95.5251 45.0797C95.5731 45.1438 95.6661 45.1743 95.8011 45.1743V45.3514H93.8931V45.1743Z" fill="#004A2B"/>
<path d="M100.877 44.4691C100.838 44.5577 100.796 44.6553 100.748 44.7622C100.7 44.869 100.676 44.9545 100.676 45.0125C100.676 45.1194 100.757 45.1743 100.922 45.1743V45.3514H99.1431V45.1743C99.2001 45.1743 99.2511 45.1682 99.2961 45.159C99.3381 45.1499 99.3801 45.1194 99.4191 45.0705C99.4581 45.0217 99.5001 44.9515 99.5481 44.8568C99.5961 44.7652 99.6591 44.6401 99.7371 44.4813L102.353 38.5377C102.431 38.3698 102.488 38.2446 102.527 38.1622C102.566 38.0797 102.584 38.0126 102.584 37.9637C102.584 37.8447 102.497 37.7867 102.323 37.7867V37.6096H104.435V37.7867C104.282 37.7867 104.204 37.8447 104.204 37.9637C104.204 38.0217 104.228 38.0981 104.276 38.1927C104.324 38.2873 104.387 38.4155 104.465 38.5834L107.24 44.4386C107.327 44.6157 107.393 44.753 107.444 44.8507C107.492 44.9484 107.537 45.0217 107.582 45.0705C107.624 45.1194 107.672 45.1499 107.72 45.159C107.768 45.1682 107.834 45.1743 107.921 45.1743V45.3514H105.911V45.1743C106.025 45.1743 106.103 45.156 106.142 45.1224C106.181 45.0888 106.199 45.0369 106.199 44.9667C106.199 44.9179 106.187 44.866 106.163 44.811C106.139 44.7561 106.088 44.6431 106.01 44.4661L105.461 43.2908H101.369L100.877 44.4661V44.4691ZM104.969 42.32L103.334 38.849L101.831 42.32H104.969Z" fill="#004A2B"/>
<path d="M26.9026 1.00738C26.6356 1.0318 26.2336 1.04706 25.7056 1.07148C24.7306 1.16917 23.9866 1.20886 23.4916 1.20886C22.6246 1.20886 21.5326 1.1417 20.2426 1.00738L20.0596 0.986006L19.7686 1.71866L20.0686 1.78888C20.5726 1.90793 20.9266 2.10331 21.1126 2.375C21.3106 2.6467 21.4126 3.00692 21.4126 3.43736C21.4126 3.77011 21.3676 4.12422 21.2776 4.47834C21.1816 4.85993 21.0736 5.22626 20.9536 5.57122C20.7466 6.22451 20.4496 7.12201 20.0716 8.26374C19.4236 10.2144 18.8746 11.8446 18.4186 13.142C17.9686 14.4394 17.5456 15.6392 17.1496 16.7107L16.4896 18.4935C15.6016 20.8105 14.9476 22.5414 14.5276 23.674C14.4016 23.3504 14.2216 22.923 14.0026 22.3949C12.7906 19.4123 11.9206 17.2144 11.3296 15.6575L11.0506 14.9553C10.3396 13.0291 9.70058 11.3165 9.14858 9.82369C8.58758 8.32785 8.05658 6.84116 7.56158 5.40027C7.33958 4.73782 7.23158 4.06927 7.23158 3.40072C7.23158 2.66196 7.42958 2.17047 7.83458 1.88351L8.02658 1.74919L7.72658 1.10201L7.55558 1.11422C6.10658 1.1997 4.98758 1.24854 4.23158 1.24854C3.64958 1.24854 2.70758 1.19054 1.44158 1.08064C1.31258 1.05317 1.11758 1.03485 0.853582 1.01043L0.496582 0.982953L0.679582 1.74919L0.775582 1.79804C1.55558 2.22847 2.12258 2.68638 2.44958 3.16872C2.79758 3.66631 3.13658 4.31655 3.45458 5.09194L3.55058 5.35753L3.54458 5.37279L3.58358 5.41553C3.58358 5.41553 3.62858 5.51322 3.81158 5.97724C4.79558 8.33701 5.60258 10.2785 6.23258 11.811C6.85358 13.3099 7.41158 14.7386 7.89758 16.0482C8.21258 16.8328 8.55758 17.6845 8.92358 18.5942C9.28958 19.5039 9.70658 20.5113 10.1686 21.6103C11.0446 23.7411 11.6836 25.3102 12.1186 26.4092C12.5596 27.5174 12.9346 28.4912 13.2466 29.3154C13.4116 29.7642 13.6366 29.9931 13.9126 29.9993H13.9396C14.1886 29.9931 14.3896 29.81 14.5396 29.4498C15.2026 27.6364 15.8206 25.9971 16.3816 24.5715C16.9366 23.1581 17.5486 21.6042 18.2206 19.9222C18.9526 18.0814 19.4896 16.7198 19.8286 15.8376L20.6476 13.6854C21.3136 11.8721 21.8926 10.3396 22.3576 9.12156C22.8256 7.91267 23.3206 6.71905 23.8186 5.58343C24.2236 4.68593 24.6826 3.88306 25.1866 3.21145C25.6696 2.55511 26.2516 2.07278 26.9206 1.77667L27.0196 1.73698L27.3256 0.976848L26.9026 1.01348V1.00738ZM32.2096 16.4542C33.2416 16.5092 34.3156 16.5397 35.3926 16.5397C36.4696 16.5397 37.5886 16.5122 38.6446 16.4542L35.5546 7.66846L32.2096 16.4542ZM31.6456 0.873055L32.0146 0.906635C32.4856 0.952426 33.0766 0.992112 33.8146 1.01959C34.5286 1.05622 35.1916 1.06843 35.7706 1.06843H36.7936L38.3086 5.18658L45.8896 25.5331C46.4896 27.1602 47.3926 28.2439 48.5776 28.7537L48.7396 28.8178V29.5627L48.4396 29.5108C46.0876 29.0987 43.6966 29.1262 41.3416 29.5108L41.0506 29.5597V29.0376C41.0506 28.7904 41.2036 28.4576 41.5396 27.9631C41.9926 27.3006 42.0586 26.9801 42.0586 26.8427C42.0586 26.6687 42.0346 26.4611 41.9866 26.2291C41.9356 25.9971 41.8846 25.7956 41.8246 25.6247L39.4246 18.5759C37.8856 18.4324 36.5476 18.3592 35.4556 18.3592C33.9646 18.3592 32.5516 18.4324 31.2676 18.5759L28.5196 26.2352C28.2826 26.9007 28.1626 27.4014 28.1626 27.7219C28.1626 28.1218 28.3276 28.4881 28.6516 28.8423L28.7266 28.9277V29.5566L28.4326 29.5108C26.7016 29.2391 24.8896 29.2635 23.1586 29.5108L22.5046 29.6085L23.1316 28.7965L23.2036 28.7782C24.7126 28.2714 25.8256 27.1175 26.5036 25.3591L34.1176 5.65975C34.1626 5.50406 34.1926 5.33616 34.1926 5.18963C34.1926 4.5974 33.9826 3.97769 33.5626 3.33967C33.1336 2.68333 32.5786 2.11857 31.9186 1.6454L31.8376 1.5874L31.6486 0.873055H31.6456ZM52.8166 29.5444L53.1016 29.5139C54.2386 29.407 55.3216 29.3521 56.3176 29.3521C57.3136 29.3521 58.5046 29.407 59.8486 29.5139L60.1306 29.5383V28.7965L59.9746 28.7263C59.4166 28.4607 58.9996 28.073 58.7236 27.5723C58.4416 27.0625 58.2796 26.4489 58.2406 25.7621C58.0756 22.2087 57.9856 18.8232 57.9856 15.7002C60.1666 15.6147 62.6656 15.572 65.4106 15.572C68.1556 15.572 70.4146 15.6147 72.5506 15.7002V15.7368C72.5506 20.2488 72.5266 23.6862 72.4876 25.9361C72.4666 26.5497 72.3046 27.1053 72.0016 27.5754C71.6926 28.0516 71.2876 28.4271 70.8046 28.6988L70.6666 28.7751V29.5108L70.9426 29.4833C72.0916 29.3734 73.1716 29.3185 74.1616 29.3185C75.1516 29.3185 76.3396 29.3734 77.6956 29.4833L77.9716 29.5047V28.7598L77.8216 28.6927C77.2636 28.424 76.8406 28.0333 76.5676 27.5326C76.2826 27.0259 76.1236 26.4184 76.0846 25.7254C75.9166 22.1568 75.8356 18.7682 75.8356 15.63C75.8356 12.214 75.8386 9.94885 75.8626 8.8926C75.8626 8.00426 75.8776 7.30213 75.8926 6.81674C75.9106 6.3222 75.9346 5.83986 75.9556 5.38195C76.0126 4.50887 76.1656 3.72431 76.4086 3.04355C76.6396 2.39637 77.0086 1.94151 77.5426 1.65761L77.6836 1.58434V0.885266L77.4076 0.906635C77.1406 0.928004 76.7536 0.952426 76.2436 0.979901C75.3076 1.05927 74.5876 1.11117 74.0926 1.11117C73.2436 1.11117 72.1216 1.03485 70.7506 0.906635L70.4656 0.882213V1.56297L70.5766 1.64235C71.2456 2.13078 71.6896 2.64364 71.8966 3.17482C72.1186 3.72431 72.2506 4.42034 72.2896 5.23542C72.4336 8.10805 72.5146 10.886 72.5386 13.4809C70.4386 13.5664 68.0386 13.603 65.4046 13.603C63.1906 13.603 60.6946 13.5541 57.9796 13.4503C57.9796 11.0631 57.9976 9.3322 58.0156 8.31258C58.0336 7.25634 58.0666 6.27335 58.1026 5.41248C58.1656 4.54855 58.3216 3.76095 58.5616 3.08629C58.7866 2.43911 59.1616 1.98425 59.6956 1.69424L59.8366 1.62403V0.915793L59.5606 0.937162C59.2936 0.958531 58.9066 0.982953 58.3936 1.00738C57.4696 1.09896 56.7436 1.1417 56.2486 1.1417C55.3996 1.1417 54.2776 1.07148 52.9036 0.937162L52.6246 0.91274V1.59655L52.7356 1.67898C53.4076 2.16436 53.8486 2.67417 54.0646 3.2084C54.2836 3.76095 54.4096 4.45697 54.4516 5.27511C54.5356 6.95106 54.6016 8.70944 54.6406 10.4861C54.6826 12.272 54.7066 14.0487 54.7066 15.7674C54.7066 20.2824 54.6796 23.7167 54.6406 25.9696C54.6226 26.5802 54.4576 27.1327 54.1546 27.5998C53.8396 28.0852 53.4406 28.4607 52.9516 28.7293L52.8136 28.8117V29.5444H52.8166ZM90.5686 27.0198C91.6336 27.1968 93.0766 27.2854 94.8646 27.2854C96.2296 27.2854 97.5286 26.974 98.7346 26.3573C99.9496 25.7346 101.03 24.8584 101.945 23.7595C102.866 22.6574 103.592 21.3539 104.114 19.8886C104.636 18.4233 104.9 16.845 104.9 15.2026C104.9 13.4656 104.636 11.7439 104.111 10.0893C103.586 8.43469 102.863 7.05485 101.948 5.9864C101.099 4.9912 100.061 4.25854 98.8576 3.80674C97.6426 3.34577 96.2986 3.11071 94.8646 3.11071C93.0856 3.11071 91.5766 3.1565 90.3826 3.24503C89.3266 3.32441 88.5886 3.4862 88.1806 3.7121C88.1476 3.98685 88.1266 4.37455 88.1056 4.87215C88.0846 5.07973 88.0756 5.22932 88.0756 5.33006C88.0516 5.81544 88.0306 6.30083 88.0066 6.78927C87.9886 7.2777 87.9766 7.97678 87.9766 8.86818C87.9586 9.91527 87.9466 12.1163 87.9466 15.6086C87.9466 18.7407 88.0306 22.1323 88.1956 25.704C88.1956 25.8262 88.2136 25.9635 88.2406 26.1345C88.7836 26.5588 89.5666 26.861 90.5656 27.0259M93.1906 29.6268C92.4736 29.6238 91.3276 29.5627 89.7826 29.4589C88.1776 29.346 86.9956 29.2941 86.2756 29.2941C85.7086 29.2941 85.0546 29.3093 84.3346 29.346C83.6056 29.3795 82.9936 29.4162 82.5226 29.4589L82.2406 29.4864V28.7079L82.3906 28.6316C82.9126 28.3599 83.4226 27.8868 83.8996 27.2304C84.3646 26.5832 84.6136 25.9605 84.6286 25.3682V23.4908C84.6556 21.2501 84.6616 18.6339 84.6616 15.7094C84.6616 13.9968 84.6406 12.2201 84.6016 10.4281C84.5596 8.64839 84.4966 6.89306 84.4126 5.211C84.3556 4.0479 83.5306 2.88786 81.9766 1.75224L81.8626 1.67287V1.01959L82.1416 1.04096C82.6846 1.08675 83.3686 1.12643 84.1936 1.17528C85.0036 1.22107 85.6846 1.24549 86.2156 1.24549C86.9596 1.24549 87.6166 1.23328 88.1536 1.20886C88.6936 1.19054 89.3566 1.14475 90.1846 1.07148C91.0486 1.03485 91.8256 0.992112 92.5066 0.958531C93.1606 0.928004 93.9076 0.909688 94.7326 0.909688H94.8586C96.7246 0.909688 98.5156 1.21496 100.184 1.81635C101.849 2.42079 103.337 3.30304 104.594 4.44476C105.848 5.58649 106.856 6.98159 107.567 8.59344C108.287 10.2053 108.647 11.9972 108.647 13.9144C108.647 16.1398 108.287 18.2309 107.558 20.1358C106.832 22.0377 105.779 23.7198 104.414 25.1332C103.055 26.5436 101.411 27.6578 99.5176 28.424C97.6246 29.1933 95.5276 29.6024 93.2536 29.6207H93.1846M118.073 16.4542C119.108 16.5092 120.185 16.5397 121.262 16.5397C122.339 16.5397 123.458 16.5122 124.511 16.4542L121.424 7.66846L118.073 16.4542ZM134.309 29.5139C131.957 29.1017 129.563 29.1292 127.214 29.5139L126.92 29.5627V29.0407C126.92 28.7934 127.07 28.4607 127.406 27.9692C127.859 27.3037 127.925 26.9862 127.925 26.8488C127.925 26.6748 127.898 26.4672 127.853 26.2352C127.802 26.0032 127.748 25.8017 127.691 25.6308L125.291 18.5851C123.755 18.4385 122.42 18.3653 121.325 18.3653C119.834 18.3653 118.424 18.4385 117.131 18.582L114.383 26.2413C114.146 26.9038 114.026 27.4044 114.026 27.728C114.026 28.1279 114.185 28.4943 114.512 28.8484L114.59 28.9338V29.5627L114.29 29.5169C112.565 29.2452 110.753 29.2696 109.016 29.5169L108.368 29.6146L108.992 28.8026L109.058 28.7843C110.57 28.2775 111.683 27.1236 112.361 25.3652L119.981 5.65975C120.026 5.50406 120.053 5.33616 120.053 5.18963C120.053 4.5974 119.84 3.97769 119.429 3.33967C118.994 2.68638 118.439 2.11857 117.776 1.6454L117.695 1.5874L117.503 0.873055L117.875 0.906635C118.352 0.952426 118.934 0.992112 119.675 1.01959C120.389 1.05622 121.049 1.06843 121.625 1.06843H122.651L124.163 5.18658L131.747 25.5331C132.344 27.1602 133.247 28.2439 134.438 28.7537L134.6 28.8178V29.5627L134.3 29.5108L134.309 29.5139ZM170.282 29.5993V28.8575L170.129 28.7873C169.472 28.4912 168.905 28.0577 168.44 27.496C167.981 26.9435 167.69 26.2841 167.579 25.5331L164.807 5.327C164.807 5.27205 164.795 5.17131 164.777 5.09194V4.82025C164.777 4.21581 164.939 3.58999 165.254 2.96113C165.563 2.34142 165.971 1.89572 166.463 1.62708L166.604 1.55382V0.848633L166.325 0.873055C166.058 0.897477 165.725 0.915793 165.323 0.937162C164.414 1.00738 163.721 1.03485 163.268 1.03485H163.091L154.508 22.8589L154.277 22.8467L144.938 1.03485H144.767C143.645 1.03485 142.622 0.995164 141.707 0.906635L141.428 0.87916V1.55992L141.542 1.63929C142.778 2.5368 143.381 3.56862 143.381 4.75004L140.867 24.66C140.744 25.6705 140.459 26.568 140.018 27.3281C139.592 28.0669 139.049 28.5553 138.398 28.7812L138.329 28.8087L137.702 29.6116L138.353 29.5139C139.262 29.3857 140.192 29.3185 141.119 29.3185C141.614 29.3185 142.241 29.3368 142.985 29.3704C143.717 29.404 144.272 29.4528 144.635 29.5139L145.073 29.5932L144.785 28.7721L144.683 28.7202C144.128 28.4759 143.726 28.1401 143.48 27.7311C143.237 27.322 143.108 26.7939 143.108 26.1803C143.108 25.875 143.123 25.6522 143.144 25.5087L144.986 10.419C148.328 17.8463 150.098 21.7904 150.302 22.2575C150.935 23.6526 151.403 24.7058 151.727 25.4049C152.036 26.1162 152.321 26.7695 152.585 27.3769C152.849 28.0028 153.035 28.3996 153.146 28.6072C153.251 28.8148 153.335 28.9735 153.41 29.0956C153.662 29.52 153.827 29.6818 154.016 29.6879H154.034C154.367 29.6787 154.502 29.2727 154.55 29.1475L161.846 10.3793L163.931 26.7847L163.94 27.032L163.967 27.0869C163.967 27.4044 163.907 27.6364 163.79 27.7891C163.649 27.9692 163.457 28.1401 163.208 28.2989C162.953 28.4637 162.611 28.7232 162.611 29.0743V29.5993L162.911 29.5474C165.263 29.1628 167.642 29.1353 170.003 29.5474L170.297 29.5993H170.282ZM173.45 1.69119C175.337 1.69119 176.882 3.25725 176.882 5.18352C176.882 7.1098 175.337 8.67891 173.45 8.67891C171.563 8.67891 170.012 7.1098 170.012 5.18352C170.012 3.25725 171.554 1.69119 173.45 1.69119ZM173.45 9.29862C175.676 9.29862 177.491 7.45476 177.491 5.18352C177.491 2.91229 175.679 1.07148 173.45 1.07148C171.221 1.07148 169.406 2.91839 169.406 5.18352C169.406 7.44866 171.215 9.29862 173.45 9.29862ZM173.084 3.77316H173.771C173.825 3.77316 173.882 3.77926 173.942 3.79453C174.251 3.90137 174.407 4.08759 174.407 4.34707C174.407 4.3715 174.401 4.41118 174.395 4.47834C174.278 4.77446 174.065 4.92404 173.753 4.92404H173.09V3.77316H173.084ZM171.995 3.36104V3.3763C172.247 3.47399 172.376 3.58084 172.376 3.69379V6.59694C172.376 6.71295 172.247 6.81979 171.989 6.91748V6.92969H173.468V6.91748C173.468 6.91748 173.414 6.89611 173.333 6.86253C173.168 6.76484 173.084 6.68242 173.084 6.61221V5.35448H173.09C173.186 5.45217 173.534 5.82155 174.137 6.47178C174.248 6.57863 174.305 6.64884 174.305 6.68242V6.69158C174.305 6.76484 174.203 6.84116 174.002 6.91748V6.92969H175.358V6.92053L173.9 5.35143H174.083C174.275 5.35143 174.437 5.31479 174.575 5.24458C174.902 5.01868 175.07 4.71951 175.07 4.35318C175.07 4.16086 175.013 3.96853 174.905 3.77621C174.701 3.49841 174.47 3.35799 174.206 3.35799H171.998L171.995 3.36104Z" fill="#004A2B"/>
</g>
<defs>
<clipPath id="clip0_2741_4478">
<rect width="177" height="44.5029" fill="white" transform="translate(0.5 0.848633)"/>
</clipPath>
</defs>
</svg>
