<svg xmlns="http://www.w3.org/2000/svg" fill="none" viewBox="0 0 38 27" height="27" width="38">
<g id="Group 924">
<path fill="#AB8744" d="M37.11 5.68C37.11 5.68 36.75 3.11 35.62 1.96C34.19 0.47 32.59 0.46 31.86 0.37C26.62 -1.19209e-07 18.73 0 18.73 0C18.73 0 10.86 1.19209e-07 5.62003 0.38C4.89003 0.47 3.29002 0.48 1.86002 1.97C0.730016 3.1 0.370026 5.69 0.370026 5.69C0.140026 7.7 0.01 9.73 0 11.76V14.6C0.02 16.63 0.140026 18.65 0.370026 20.67C0.370026 20.67 0.740016 23.24 1.86002 24.39C3.29002 25.88 5.16 25.83 6 25.99C9 26.28 18.74 26.36 18.74 26.36C18.74 26.36 26.62 26.36 31.86 25.97C32.59 25.88 34.19 25.88 35.62 24.39C36.75 23.26 37.11 20.67 37.11 20.67C37.34 18.65 37.47 16.63 37.48 14.6V11.75C37.46 9.72 37.33 7.69 37.1 5.68H37.11Z" clip-rule="evenodd" fill-rule="evenodd" id="Vector"></path>
<path fill="white" d="M14.8701 18.03V7.5L25.0001 12.79L14.8701 18.03Z" clip-rule="evenodd" fill-rule="evenodd" id="Vector_2"></path>
</g>
</svg>
